<?xml version="1.0" encoding="iso-8859-1"?>
<!-- Generator: Adobe Illustrator 16.0.0, SVG Export Plug-In . SVG Version: 6.00 Build 0)  -->
<!DOCTYPE svg PUBLIC "-//W3C//DTD SVG 1.1//EN" "http://www.w3.org/Graphics/SVG/1.1/DTD/svg11.dtd">
<svg version="1.1" id="Capa_1" xmlns="http://www.w3.org/2000/svg" xmlns:xlink="http://www.w3.org/1999/xlink" x="0px" y="0px"
	 width="393.961px" height="393.961px" viewBox="0 0 393.961 393.961" style="enable-background:new 0 0 393.961 393.961;"
	 xml:space="preserve">
<g>
	<g>
		<path d="M344.527,0.002H49.431C22.175,0.002,0,22.177,0,49.434v295.093c0,27.258,22.175,49.432,49.431,49.432h295.096
			c27.258,0,49.434-22.174,49.434-49.432V49.434C393.959,22.177,371.785,0.002,344.527,0.002z M347.938,176.073h-7.119
			c-11.529,0-20.91,9.379-20.91,20.91c0,11.527,9.381,20.906,20.91,20.906h7.119v126.639c0,1.881-1.529,3.41-3.41,3.41H217.889
			v-7.119c0-11.528-9.38-20.908-20.908-20.908c-11.529,0-20.909,9.38-20.909,20.908v7.119H49.431c-1.88,0-3.408-1.529-3.408-3.41
			V217.889h7.119c11.529,0,20.909-9.379,20.909-20.906c0-11.531-9.38-20.91-20.909-20.91h-7.119V49.434
			c0-1.88,1.528-3.41,3.408-3.41h126.641v7.119c0,11.529,9.38,20.909,20.909,20.909c11.528,0,20.908-9.38,20.908-20.909v-7.119
			h126.639c1.881,0,3.41,1.529,3.41,3.41V176.073L347.938,176.073z"/>
		<path d="M267.662,192.875c-0.336-0.053-32.01-5.082-52.6-8.042c-2.877-23.361-13.49-90.23-13.963-93.207
			c-0.322-2.033-2.076-3.529-4.136-3.529c-2.058,0-3.812,1.497-4.135,3.529c-1.502,9.469-14.693,92.741-14.693,100.922
			c0,2.403,0.46,4.747,1.352,6.974l-50.282,43.193c-2.458,2.123-2.729,5.835-0.605,8.292c1.161,1.347,2.802,2.036,4.45,2.036
			c1.362,0,2.73-0.471,3.841-1.43l50.159-43.088c0.035,0.023,0.066,0.054,0.104,0.076c2.965,1.815,6.358,2.775,9.811,2.775
			c0.057,0,0.11,0,0.167-0.003c0.052,0.002,0.108,0.003,0.164,0.003c5.785,0,63.773-9.186,70.365-10.232
			c2.033-0.322,3.531-2.074,3.531-4.133C271.191,194.95,269.695,193.197,267.662,192.875z"/>
	</g>
</g>
<g>
</g>
<g>
</g>
<g>
</g>
<g>
</g>
<g>
</g>
<g>
</g>
<g>
</g>
<g>
</g>
<g>
</g>
<g>
</g>
<g>
</g>
<g>
</g>
<g>
</g>
<g>
</g>
<g>
</g>
</svg>
