<svg height="512pt" viewBox="-43 0 512 512" width="512pt" xmlns="http://www.w3.org/2000/svg"><path d="m135.339844 5.332031h-100.011719c-16.535156 0-29.996094 14.058594-29.996094 31.339844v438.65625c0 17.28125 13.460938 31.339844 29.996094 31.339844h100.011719c16.53125 0 29.992187-14.058594 29.992187-31.339844v-438.65625c0-17.28125-13.460937-31.339844-29.992187-31.339844zm0 0" fill="#ffc107"/><path d="m391.339844 5.332031h-100.011719c-16.535156 0-29.996094 14.058594-29.996094 31.339844v438.65625c0 17.28125 13.460938 31.339844 29.996094 31.339844h100.011719c16.53125 0 29.992187-14.058594 29.992187-31.339844v-438.65625c0-17.28125-13.460937-31.339844-29.992187-31.339844zm0 0" fill="#ffc107"/><path d="m138.667969 512h-106.667969c-17.644531 0-32-14.355469-32-32v-448c0-17.644531 14.355469-32 32-32h106.667969c17.640625 0 32 14.355469 32 32v448c0 17.644531-14.359375 32-32 32zm-106.667969-490.667969c-5.886719 0-10.667969 4.800781-10.667969 10.667969v448c0 5.867188 4.78125 10.667969 10.667969 10.667969h106.667969c5.886719 0 10.664062-4.800781 10.664062-10.667969v-448c0-5.867188-4.777343-10.667969-10.664062-10.667969zm0 0"/><path d="m394.667969 512h-106.667969c-17.644531 0-32-14.355469-32-32v-448c0-17.644531 14.355469-32 32-32h106.667969c17.640625 0 32 14.355469 32 32v448c0 17.644531-14.359375 32-32 32zm-106.667969-490.667969c-5.886719 0-10.667969 4.800781-10.667969 10.667969v448c0 5.867188 4.78125 10.667969 10.667969 10.667969h106.667969c5.886719 0 10.664062-4.800781 10.664062-10.667969v-448c0-5.867188-4.777343-10.667969-10.664062-10.667969zm0 0"/></svg>