<?xml version="1.0" encoding="iso-8859-1"?>
<!-- Generator: Adobe Illustrator 19.0.0, SVG Export Plug-In . SVG Version: 6.00 Build 0)  -->
<svg version="1.1" id="Capa_1" xmlns="http://www.w3.org/2000/svg" xmlns:xlink="http://www.w3.org/1999/xlink" x="0px" y="0px"
	 viewBox="0 0 440 440" style="enable-background:new 0 0 440 440;" xml:space="preserve">
<g>
	<g>
		<g>
			<circle cx="248" cy="143.05" r="8"/>
			<circle cx="248" cy="262.482" r="8"/>
			<circle cx="188.264" cy="202.778" r="8"/>
			<circle cx="205.76" cy="160.538" r="8"/>
			<circle cx="205.76" cy="245.042" r="8"/>
			<path d="M264.844,212.168l30.946-52.497c1.789-3.038-1.641-6.469-4.68-4.677l-52.481,30.959
				c-1.434,0.819-2.782,1.826-4.012,3.054c-7.492,7.492-7.492,19.661,0,27.154c7.512,7.51,19.664,7.492,27.156,0
				C263,214.933,264.027,213.584,264.844,212.168z"/>
			<path d="M440,194.355c0-17.673-14.328-32.001-32-32.001c17.672,0,32-14.327,32-32s-14.328-32-32-32h-64
				c-17.672,0-32,14.327-32,32s14.328,32,32,32c-17.672,0-32,14.327-32,32c0,13.868,8.875,25.562,21.211,30.003
				c-0.168,0.666-0.328,1.337-0.512,1.997H328c-17.672,0-32,14.327-32,32c0,5.549,1.539,10.689,4.023,15.238
				c-15.61,11.496-34.234,17.187-52.023,17.187c-48.523,0-88-39.477-88-88s39.477-88,88-88c17.758,0,34.274,5.328,48.117,14.41
				c0.355-14.455,7.168-27.206,17.614-35.782c-5.836-3.514-11.859-6.748-18.25-9.324c-0.446-0.178-0.906-0.326-1.351-0.499
				c-4-1.561-8.117-2.878-12.301-4.034c-1.11-0.302-2.207-0.62-3.328-0.894c-4.742-1.171-9.558-2.155-14.5-2.773V58.779h16v-32h-64
				v32h16v17.106c-42.707,5.338-79.488,32.21-98.402,69.694l-14.125-7.062c2.73-5.414,5.645-10.726,9.012-15.738
				c12.094-17.501,29.054-33.83,47.633-44.572c6.582-18.094,3.942-39.341-10.164-55.85c-2.461-2.883-6.836-3.337-10.082-1.381
				L55.488,81.45C45.875,87.24,40,97.641,40,108.861v53.493v39.439c-0.004,0.32,0,0.666,0,0.987
				c0,13.831,3.828,26.643,10.008,37.993L40,250.781l-40,40l128,129.433l64.426-65.859h100.058c-0.11-0.119-0.183-0.262-0.289-0.383
				c1.262,0.151,2.5,0.384,3.805,0.384h64c17.672,0,32-14.327,32-32s-14.328-32-32-32h16h16c17.672,0,32-14.327,32-32
				s-14.328-32-32-32h16C425.672,226.355,440,212.028,440,194.355z"/>
		</g>
	</g>
</g>
<g>
</g>
<g>
</g>
<g>
</g>
<g>
</g>
<g>
</g>
<g>
</g>
<g>
</g>
<g>
</g>
<g>
</g>
<g>
</g>
<g>
</g>
<g>
</g>
<g>
</g>
<g>
</g>
<g>
</g>
</svg>
